<?xml version="1.0" standalone="no"?>
<!DOCTYPE svg PUBLIC "-//W3C//DTD SVG 20010904//EN"
 "http://www.w3.org/TR/2001/REC-SVG-20010904/DTD/svg10.dtd">
<svg version="1.0" xmlns="http://www.w3.org/2000/svg"
 width="512.000000pt" height="512.000000pt" viewBox="0 0 512.000000 512.000000"
 preserveAspectRatio="xMidYMid meet">

<g transform="translate(0.000000,512.000000) scale(0.100000,-0.100000)"
fill="#ff5722" stroke="none">
<path d="M3020 5103 c-14 -10 -98 -80 -188 -156 -90 -77 -167 -136 -171 -131
-4 5 -54 68 -111 139 -57 72 -110 136 -118 143 -9 6 -30 12 -47 12 -17 0 -38
-6 -47 -12 -9 -7 -62 -78 -119 -158 -56 -80 -104 -147 -105 -149 -2 -1 -72 20
-156 48 -84 28 -163 51 -175 51 -56 0 -65 -14 -144 -237 l-54 -153 -203 0
c-202 0 -203 0 -227 -25 -31 -30 -31 -37 4 -302 l28 -212 -66 -15 c-36 -8
-118 -25 -181 -37 -125 -25 -160 -45 -160 -94 0 -35 24 -79 137 -256 l96 -151
-33 -94 c-86 -249 -26 -494 170 -700 47 -50 82 -57 121 -25 24 19 24 23 24
188 0 136 4 179 19 226 10 33 21 55 25 50 4 -4 18 -39 30 -78 113 -354 356
-626 687 -770 94 -41 126 -44 159 -10 43 42 39 55 -62 194 -95 132 -180 337
-225 545 -19 87 -22 131 -22 326 -1 210 1 233 27 340 21 91 32 120 52 138 34
29 70 28 100 -3 31 -30 31 -54 4 -171 -32 -141 -37 -394 -11 -551 12 -67 27
-136 35 -155 l14 -33 50 105 c27 58 58 127 68 154 16 42 20 47 29 31 6 -10 36
-52 67 -94 91 -124 215 -228 356 -300 76 -38 112 -39 143 -6 26 27 25 50 -5
185 -23 101 -23 301 -1 395 35 149 102 280 187 368 44 45 51 49 81 43 18 -3
41 -16 51 -27 30 -37 21 -74 -32 -144 -53 -69 -102 -164 -120 -232 -11 -38 -9
-48 14 -93 14 -28 60 -87 101 -130 l76 -79 -44 -47 c-24 -26 -83 -78 -131
-117 -117 -93 -130 -120 -83 -174 24 -28 26 -28 155 -32 156 -4 249 13 358 65
80 38 177 121 225 193 40 60 55 71 95 71 73 0 95 -72 45 -151 -87 -135 -247
-257 -397 -302 -28 -8 -80 -35 -115 -60 -85 -59 -169 -100 -258 -127 -94 -29
-116 -47 -116 -95 0 -27 6 -43 23 -56 31 -25 158 -65 259 -80 53 -8 82 -17 82
-25 0 -30 -97 -200 -159 -276 -74 -93 -166 -173 -291 -256 -100 -66 -285 -162
-312 -162 -42 0 -274 129 -406 227 -184 136 -328 340 -387 548 -16 56 -25 67
-126 164 -60 57 -130 130 -155 163 l-46 59 -28 -83 c-16 -46 -49 -125 -74
-177 -49 -100 -50 -118 -13 -158 30 -33 62 -29 166 22 51 25 94 45 96 45 1 0
15 -39 30 -87 51 -166 127 -304 239 -436 65 -77 69 -99 35 -200 -36 -108 -104
-201 -191 -260 -29 -20 -258 -134 -508 -253 -250 -119 -483 -236 -517 -260
-174 -124 -283 -341 -283 -564 0 -62 3 -74 25 -95 31 -32 78 -33 109 -2 20 20
24 36 28 122 10 162 59 269 174 374 59 54 63 56 614 320 l205 98 5 -450 5
-449 24 -19 c22 -18 53 -19 1011 -19 958 0 989 1 1011 19 l24 19 5 449 5 449
195 -92 c540 -258 564 -270 625 -325 112 -103 164 -215 173 -374 4 -86 8 -102
28 -122 32 -32 78 -30 109 3 22 23 25 37 25 96 0 227 -116 449 -297 571 -37
25 -274 143 -525 262 -337 160 -472 230 -514 264 -105 84 -174 216 -189 362
l-7 65 61 85 c63 88 141 235 162 306 11 38 16 43 48 48 74 12 228 67 293 106
37 22 95 65 129 97 l62 57 -7 96 -6 97 141 83 c142 84 169 107 169 144 0 11
-45 102 -100 202 -55 99 -100 185 -100 191 0 5 50 42 111 82 118 79 149 109
149 146 0 16 -41 71 -122 165 -68 78 -133 153 -144 168 l-22 26 85 115 c137
185 145 206 101 247 -13 12 -110 64 -215 117 -106 53 -193 99 -193 103 0 13
-61 357 -66 376 -3 10 -17 25 -30 34 -23 15 -38 14 -225 -17 -109 -18 -201
-31 -202 -29 -2 2 -40 90 -86 194 -101 233 -132 266 -201 218z m-37 -470 c29
-27 22 -85 -17 -132 -35 -42 -50 -90 -62 -196 -8 -73 -32 -105 -80 -105 -17 0
-42 9 -55 19 -21 17 -24 27 -23 90 2 88 19 161 54 231 27 54 70 102 100 113
21 8 62 -2 83 -20z m-666 -184 c140 -80 265 -206 298 -300 35 -97 27 -277 -15
-346 -23 -38 -60 -48 -100 -28 -38 20 -46 52 -31 130 24 134 10 196 -62 272
-28 30 -90 80 -137 111 -47 31 -90 63 -97 72 -34 42 7 120 63 120 15 0 51 -14
81 -31z m1058 -74 c33 -32 32 -57 -10 -140 -19 -38 -38 -92 -41 -120 -7 -65
-21 -91 -53 -105 -35 -14 -74 0 -97 36 -16 23 -16 35 -7 99 12 81 58 191 97
230 33 33 79 33 111 0z m-1487 -259 c69 -32 132 -93 132 -130 0 -13 -9 -35
-21 -50 -30 -38 -77 -35 -134 8 -54 42 -105 51 -220 42 -74 -5 -85 -4 -109 15
-20 16 -26 29 -26 58 0 71 48 91 210 88 91 -3 113 -7 168 -31z m-420 -432
c104 -43 137 -140 60 -180 -32 -17 -58 -12 -99 18 -27 21 -46 21 -152 2 -32
-5 -42 -2 -63 17 -30 28 -33 88 -6 112 49 44 189 61 260 31z m2425 -158 c73
-31 94 -99 42 -143 -22 -20 -35 -23 -59 -18 -39 8 -70 8 -118 0 -31 -6 -41 -3
-62 19 -51 50 -26 116 52 140 60 19 105 19 145 2z m-795 -2078 c17 -77 84
-205 138 -266 43 -49 46 -56 40 -93 -39 -242 -438 -431 -822 -389 -325 35
-579 197 -610 389 -6 38 -3 44 38 90 47 52 107 158 128 226 7 22 15 43 19 47
3 4 51 -22 106 -58 120 -79 332 -184 383 -191 31 -3 61 8 177 65 125 62 345
197 360 222 14 23 31 6 43 -42z"/>
<path d="M2436 2189 c-20 -16 -26 -29 -26 -59 0 -55 34 -80 110 -80 76 0 110
25 110 80 0 55 -34 80 -110 80 -43 0 -64 -5 -84 -21z"/>
<path d="M2336 1909 c-20 -16 -26 -29 -26 -59 0 -30 6 -43 26 -59 24 -19 40
-21 169 -21 129 0 145 2 169 21 20 16 26 29 26 59 0 30 -6 43 -26 59 -24 19
-40 21 -169 21 -129 0 -145 -2 -169 -21z"/>
</g>
</svg>
