<?xml version="1.0" standalone="no"?>
<!DOCTYPE svg PUBLIC "-//W3C//DTD SVG 20010904//EN"
 "http://www.w3.org/TR/2001/REC-SVG-20010904/DTD/svg10.dtd">
<svg version="1.0" xmlns="http://www.w3.org/2000/svg"
 width="512.000000pt" height="512.000000pt" viewBox="0 0 512.000000 512.000000"
 preserveAspectRatio="xMidYMid meet">

<g transform="translate(0.000000,512.000000) scale(0.100000,-0.100000)"
fill="#ff4081" stroke="none">
<path d="M1285 3954 c-192 -42 -347 -166 -505 -403 -272 -406 -483 -1068 -532
-1666 -14 -176 -4 -270 43 -401 117 -322 449 -555 759 -531 211 16 399 131
514 312 210 330 538 495 982 495 430 0 750 -158 961 -472 159 -237 360 -347
613 -335 114 5 244 45 354 109 109 63 249 209 308 323 86 166 109 302 89 525
-59 642 -298 1343 -587 1722 -150 196 -281 287 -464 324 -241 48 -497 -44
-732 -266 -46 -43 -105 -107 -133 -142 l-50 -65 -104 -6 c-133 -9 -349 -9
-482 0 l-104 6 -50 65 c-143 184 -374 348 -560 397 -88 24 -236 28 -320 9z
m223 -154 c85 -14 178 -53 270 -112 87 -57 267 -233 305 -299 15 -26 39 -108
61 -204 20 -88 45 -171 55 -185 l18 -25 314 -3 c173 -1 324 0 336 3 30 7 42
34 98 220 56 187 71 213 204 346 251 252 516 329 746 215 253 -125 531 -628
690 -1246 31 -121 85 -391 85 -424 0 -28 -104 -171 -186 -256 -166 -172 -373
-285 -609 -331 -38 -7 -128 -14 -200 -14 l-130 0 -85 85 c-47 47 -102 96 -121
109 l-36 24 61 42 c118 81 172 192 164 344 -4 71 -10 97 -35 146 -38 74 -114
147 -191 183 -50 24 -69 27 -157 27 -88 0 -107 -3 -157 -27 -80 -37 -152 -107
-191 -187 -29 -60 -32 -74 -32 -161 0 -58 5 -108 14 -128 7 -18 12 -34 10 -37
-3 -2 -40 1 -84 7 -44 5 -152 8 -241 5 l-161 -6 14 52 c21 78 11 183 -25 260
-37 79 -73 121 -137 163 -239 153 -547 16 -596 -264 -26 -146 48 -307 180
-392 l23 -16 -43 -28 c-23 -16 -84 -69 -134 -117 l-92 -89 -84 0 c-377 0 -740
195 -951 512 -26 39 -48 82 -48 93 0 40 49 288 84 425 75 295 208 633 329 842
210 361 402 490 665 448z m1322 -494 c0 -4 -12 -46 -26 -92 l-26 -84 -228 0
-228 0 -16 73 c-9 39 -19 81 -22 92 -5 20 0 20 270 20 152 0 276 -4 276 -9z
m-762 -1045 c111 -56 152 -188 95 -302 -50 -97 -154 -144 -259 -118 -69 18
-146 96 -163 165 -28 117 41 237 157 275 41 13 124 3 170 -20z m1203 2 c76
-39 112 -93 117 -177 5 -77 -9 -126 -52 -174 -41 -47 -103 -73 -172 -73 -198
0 -298 236 -161 380 71 75 173 92 268 44z m1434 -630 c-28 -127 -85 -225 -189
-328 -100 -99 -191 -152 -308 -180 -171 -40 -337 6 -462 129 l-61 60 90 7
c188 16 335 57 497 141 135 69 234 144 348 265 l95 100 3 -61 c2 -33 -4 -93
-13 -133z m-4230 114 c195 -230 497 -384 824 -421 l106 -12 -60 -60 c-119
-117 -279 -166 -437 -133 -168 34 -357 186 -436 349 -23 47 -48 114 -56 150
-16 67 -22 201 -8 199 4 0 34 -33 67 -72z"/>
<path d="M3605 3595 c-44 -24 -86 -66 -101 -102 -33 -77 -5 -189 57 -235 90
-67 188 -61 265 16 90 89 77 234 -27 303 -52 34 -147 43 -194 18z m116 -166
c9 -18 7 -25 -10 -43 -17 -16 -25 -18 -39 -10 -19 12 -27 37 -18 60 8 22 54
17 67 -7z"/>
<path d="M1375 3565 c-67 -36 -114 -107 -115 -170 l0 -31 -78 1 c-69 0 -83 -3
-120 -28 -147 -96 -96 -325 79 -355 l44 -7 5 -80 c7 -90 15 -109 64 -153 61
-53 146 -63 217 -27 57 30 109 114 109 179 0 17 5 18 50 12 107 -14 200 44
225 141 32 121 -41 226 -170 247 l-41 7 4 64 c8 125 -61 206 -182 213 -43 2
-70 -2 -91 -13z m110 -190 c-1 -22 -4 -67 -9 -101 -7 -56 -6 -63 16 -88 19
-22 37 -29 104 -40 92 -14 104 -20 104 -45 0 -33 -22 -42 -80 -31 -67 13 -126
13 -150 0 -22 -12 -36 -54 -46 -133 -8 -72 -30 -99 -63 -78 -11 7 -12 24 -6
83 17 152 6 168 -121 187 -87 13 -111 29 -93 64 10 17 18 19 58 13 146 -20
148 -20 173 6 19 18 28 43 37 103 14 89 24 107 55 103 17 -2 21 -10 21 -43z"/>
<path d="M3942 3329 c-130 -65 -137 -262 -14 -340 97 -61 232 -26 283 73 38
74 25 169 -30 232 -50 57 -161 73 -239 35z m128 -159 c8 -15 6 -24 -10 -40
-16 -16 -25 -18 -40 -10 -19 10 -27 49 -13 63 14 14 53 6 63 -13z"/>
<path d="M3343 3241 c-53 -24 -100 -88 -109 -148 -21 -140 111 -259 247 -223
56 15 122 80 139 137 38 125 -59 253 -190 253 -25 0 -64 -9 -87 -19z m115
-153 c32 -32 -8 -80 -48 -58 -34 18 -19 70 20 70 9 0 21 -5 28 -12z"/>
<path d="M3727 2996 c-119 -32 -180 -167 -124 -276 35 -70 85 -103 161 -108
49 -3 71 0 103 17 122 61 148 210 57 311 -50 56 -121 76 -197 56z m84 -172
c17 -21 0 -48 -33 -52 -28 -3 -42 18 -33 49 8 23 48 25 66 3z"/>
</g>
</svg>
