<?xml version="1.0" standalone="no"?>
<!DOCTYPE svg PUBLIC "-//W3C//DTD SVG 20010904//EN"
 "http://www.w3.org/TR/2001/REC-SVG-20010904/DTD/svg10.dtd">
<svg version="1.0" xmlns="http://www.w3.org/2000/svg"
 width="512.000000pt" height="512.000000pt" viewBox="0 0 512.000000 512.000000"
 preserveAspectRatio="xMidYMid meet">

<g transform="translate(0.000000,512.000000) scale(0.100000,-0.100000)"
fill="#29b6f6" stroke="none">
<path d="M2799 4971 c-23 -18 -24 -26 -24 -126 0 -100 1 -108 24 -126 35 -28
85 -25 110 7 18 23 21 41 21 119 0 78 -3 96 -21 119 -25 32 -75 35 -110 7z"/>
<path d="M2284 4770 c-29 -11 -54 -48 -54 -78 0 -32 122 -159 162 -167 34 -8
73 14 90 50 17 37 -6 78 -76 139 -67 58 -90 69 -122 56z"/>
<path d="M3419 4772 c-24 -11 -135 -114 -148 -139 -15 -30 -4 -69 26 -93 45
-35 70 -27 150 53 58 59 73 80 73 103 0 47 -61 93 -101 76z"/>
<path d="M2785 4600 c-284 -59 -461 -339 -390 -615 50 -189 216 -335 415 -366
143 -22 291 26 404 132 209 195 209 518 0 719 -115 111 -279 160 -429 130z
m230 -184 c66 -30 133 -95 166 -161 20 -42 24 -64 24 -145 0 -112 -21 -167
-91 -237 -166 -165 -441 -116 -543 97 -22 46 -26 69 -26 140 0 103 29 174 96
240 103 100 246 125 374 66z"/>
<path d="M2035 4205 c-33 -33 -32 -70 4 -106 28 -27 34 -29 113 -29 93 0 127
12 146 54 11 22 11 33 2 57 -18 43 -37 49 -145 49 -89 0 -98 -2 -120 -25z"/>
<path d="M3477 4218 c-27 -22 -39 -66 -25 -96 19 -40 54 -52 146 -52 79 0 85
2 113 29 36 36 37 73 4 106 -22 23 -31 25 -123 25 -63 0 -104 -4 -115 -12z"/>
<path d="M2300 3712 c-59 -56 -70 -72 -70 -100 0 -43 38 -82 80 -82 26 0 46
14 107 74 71 70 75 77 69 107 -9 48 -33 69 -77 69 -34 0 -47 -8 -109 -68z"/>
<path d="M3289 3761 c-16 -13 -23 -29 -23 -55 0 -31 9 -45 55 -92 86 -88 130
-103 174 -59 45 44 35 79 -43 157 -59 59 -73 68 -104 68 -20 0 -46 -8 -59 -19z"/>
<path d="M2693 3563 c-36 -7 -66 -52 -59 -88 12 -61 27 -65 246 -65 l199 0 20
26 c28 35 26 67 -3 101 l-24 28 -179 1 c-98 1 -188 0 -200 -3z"/>
<path d="M2724 3347 c-20 -17 -27 -33 -27 -57 0 -24 7 -40 27 -57 25 -21 36
-23 151 -23 114 0 126 2 149 23 41 36 43 71 8 107 l-30 30 -126 0 c-117 0
-127 -2 -152 -23z"/>
<path d="M2782 3119 c-163 -19 -307 -92 -433 -219 -71 -71 -94 -103 -133 -181
-55 -113 -75 -185 -82 -299 -13 -202 58 -393 206 -553 70 -76 66 -79 -36 -31
-100 47 -124 84 -360 556 -119 238 -236 463 -260 499 -51 77 -114 138 -176
170 -61 33 -165 33 -228 0 -58 -30 -107 -76 -133 -126 -27 -54 -34 -170 -14
-248 8 -32 122 -317 252 -635 198 -484 244 -588 285 -644 85 -115 195 -189
395 -263 l110 -41 5 -468 5 -468 24 -19 c22 -18 52 -19 885 -19 l863 0 21 23
22 23 0 532 c0 339 -4 550 -11 584 -6 29 -31 96 -57 148 -104 213 -313 350
-534 350 l-61 0 65 68 c181 187 253 425 202 670 -33 160 -101 279 -226 397
-159 150 -375 220 -596 194z m242 -174 c187 -49 351 -205 409 -390 17 -54 22
-94 22 -175 0 -174 -57 -306 -182 -427 -64 -61 -185 -126 -269 -143 -84 -18
-245 -8 -318 18 -178 65 -308 202 -372 392 -26 76 -26 244 0 320 70 207 217
351 416 406 64 18 224 17 294 -1z m-1578 -31 c19 -9 52 -39 74 -66 21 -27 143
-255 271 -506 127 -251 245 -476 261 -500 34 -49 111 -113 178 -147 108 -54
114 -55 696 -58 529 -3 540 -4 599 -25 92 -35 163 -89 222 -171 93 -129 93
-128 93 -677 l0 -474 -135 0 -135 0 0 363 c-1 381 -1 381 -47 405 -34 18 -52
14 -84 -17 l-29 -29 0 -361 0 -361 -535 0 -535 0 0 449 c0 413 -1 450 -17 469
-10 11 -87 45 -171 77 -212 78 -276 118 -351 219 -57 76 -511 1186 -518 1267
-7 71 8 111 51 139 38 24 67 25 112 4z"/>
</g>
</svg>
