<?xml version="1.0" standalone="no"?>
<!DOCTYPE svg PUBLIC "-//W3C//DTD SVG 20010904//EN"
 "http://www.w3.org/TR/2001/REC-SVG-20010904/DTD/svg10.dtd">
<svg version="1.0" xmlns="http://www.w3.org/2000/svg"
 width="512.000000pt" height="512.000000pt" viewBox="0 0 512.000000 512.000000"
 preserveAspectRatio="xMidYMid meet">

<g transform="translate(0.000000,512.000000) scale(0.100000,-0.100000)"
fill="#ffcc00" stroke="none">
<path d="M760 5099 c-306 -50 -588 -277 -694 -559 -50 -131 -60 -188 -60 -330
0 -109 4 -151 23 -220 66 -247 232 -457 454 -576 l58 -31 -86 -49 c-216 -121
-373 -333 -429 -578 -91 -400 100 -815 458 -998 l58 -29 -79 -45 c-335 -189
-513 -563 -448 -939 55 -314 279 -579 586 -694 141 -53 35 -51 2272 -51 1910
0 2082 1 2114 16 110 53 161 183 114 290 -27 60 -54 90 -106 117 -34 17 -66
22 -200 28 -103 4 -175 12 -201 22 -143 53 -238 148 -285 286 -23 64 -27 185
-9 253 32 121 129 235 244 289 77 36 153 48 296 49 124 1 168 16 221 79 70 81
77 187 18 271 -16 24 -16 27 0 50 59 83 52 190 -18 271 -52 62 -97 78 -216 79
-211 1 -318 34 -418 129 -93 88 -137 193 -138 326 0 195 112 351 305 422 26
10 98 18 201 22 134 6 166 11 200 28 52 27 79 57 106 117 26 61 22 135 -12
196 l-23 40 23 41 c13 23 25 64 28 97 4 49 0 65 -24 112 -31 61 -86 106 -149
120 -21 5 -91 10 -155 10 -168 0 -271 35 -362 123 -94 92 -138 195 -138 322 1
133 45 238 138 326 99 93 211 128 418 129 75 0 110 5 140 19 113 52 164 178
116 287 -29 64 -55 92 -116 120 l-50 24 -2060 -1 c-1156 -1 -2084 -5 -2115
-10z m4163 -150 c24 -11 47 -47 47 -73 0 -8 -9 -24 -19 -37 l-19 -24 -2069 -5
c-1976 -5 -2070 -6 -2123 -23 -247 -83 -406 -277 -435 -528 -8 -62 6 -172 31
-246 43 -132 162 -268 293 -337 134 -70 -23 -66 2227 -66 1392 0 2040 -3 2061
-10 28 -10 53 -45 53 -74 0 -7 -9 -25 -21 -40 l-20 -26 -2057 0 c-1718 0
-2068 3 -2123 14 -216 46 -417 202 -514 400 -63 128 -80 198 -79 336 0 88 5
133 22 193 82 289 314 497 610 547 78 13 4107 12 4135 -1z m-623 -329 c-17
-22 -35 -42 -40 -45 -5 -3 -23 -30 -40 -60 l-31 -55 -285 0 c-182 0 -292 -4
-305 -11 -48 -25 -44 -105 7 -128 16 -7 111 -11 278 -11 l254 0 0 -105 0 -105
-1836 2 -1837 3 -6 50 c-3 28 -4 74 -1 102 l5 53 1454 2 1455 3 19 24 c25 30
24 62 -2 95 l-20 26 -1415 0 c-778 0 -1414 4 -1414 8 0 11 88 94 125 119 43
29 112 54 170 63 28 4 826 8 1773 9 l1724 1 -32 -40z m-81 -720 c17 -28 50
-71 73 -96 l41 -44 -1764 2 -1764 3 -57 23 c-67 27 -166 97 -191 135 l-17 27
1824 0 1824 0 31 -50z m730 -626 c12 -15 21 -33 21 -40 0 -29 -25 -64 -53 -74
-21 -7 -669 -10 -2061 -10 -2253 0 -2091 5 -2230 -67 -102 -53 -212 -165 -258
-263 -48 -100 -63 -167 -62 -275 2 -280 201 -521 480 -580 59 -13 355 -15
2102 -15 l2033 0 24 -25 c14 -13 25 -31 25 -39 0 -28 -22 -64 -47 -75 -17 -8
-586 -11 -2048 -11 -2202 0 -2094 -3 -2242 56 -181 72 -325 206 -408 379 -175
366 -23 806 342 987 167 83 -31 76 2295 77 l2067 1 20 -26z m-3379 -369 l0
-95 -515 0 c-505 0 -515 0 -505 19 29 54 161 140 247 160 21 5 203 9 406 10
l367 1 0 -95z m828 -297 c-2 -255 -7 -393 -13 -395 -6 -2 -62 40 -125 92 -123
102 -163 121 -232 110 -39 -7 -69 -27 -216 -152 -35 -29 -67 -53 -71 -53 -18
0 -21 57 -21 418 l0 372 340 0 340 0 -2 -392z m1893 347 c-22 -24 -55 -67 -72
-95 l-31 -50 -819 0 -819 0 0 95 0 95 891 0 892 0 -42 -45z m-2721 -400 l0
-105 -130 0 c-139 0 -171 -8 -189 -47 -16 -34 -14 -47 10 -77 20 -26 21 -26
163 -26 l143 0 5 -64 c4 -42 13 -77 28 -100 l22 -36 -359 0 c-388 0 -457 6
-548 49 -57 26 -175 122 -175 142 0 5 110 9 254 9 l255 0 20 26 c34 43 26 86
-20 109 -23 12 -81 15 -303 15 -195 0 -277 3 -282 11 -9 15 -8 174 1 188 4 8
174 11 556 11 l549 0 0 -105z m2568 0 l0 -105 -794 0 -794 0 0 105 0 105 794
0 794 0 0 -105z m71 -292 c11 -21 42 -66 70 -100 l51 -63 -914 0 -913 0 23 47
c16 31 24 63 24 100 l0 53 820 0 820 0 19 -37z m-2044 -75 l99 -83 -102 -3
c-56 -1 -148 -1 -203 0 l-102 3 99 82 c54 46 101 83 104 83 3 0 50 -37 105
-82z m2779 -558 c27 -26 30 -73 8 -100 l-20 -25 -2069 -5 c-1977 -5 -2070 -6
-2123 -23 -248 -84 -406 -275 -435 -528 -8 -66 7 -178 35 -256 45 -129 161
-259 289 -327 134 -70 -22 -66 2227 -66 1392 0 2040 -3 2061 -10 28 -10 53
-45 53 -74 0 -7 -9 -25 -21 -40 l-20 -26 -2055 0 c-2319 0 -2119 -7 -2304 82
-92 44 -115 61 -195 142 -76 76 -99 107 -138 186 -65 131 -82 200 -81 340 0
88 5 133 22 193 79 278 301 486 582 542 52 11 461 13 2117 12 1818 -2 2054 -4
2067 -17z m-656 -332 c-25 -29 -57 -74 -72 -100 l-28 -48 -1824 0 c-1003 0
-1824 4 -1824 8 0 13 102 107 140 129 39 23 119 50 165 56 17 2 808 5 1759 6
l1728 1 -44 -52z m-150 -403 l0 -105 -868 0 c-828 0 -869 -1 -891 -18 -30 -25
-30 -75 0 -105 l22 -22 894 -3 895 -2 36 -58 c20 -31 52 -74 72 -94 l36 -38
-1740 0 c-1904 0 -1795 -3 -1908 58 -27 15 -72 50 -100 77 l-51 50 813 5 814
5 19 24 c26 32 24 73 -4 99 l-23 22 -845 2 -844 3 -6 50 c-3 28 -4 74 -1 103
l5 52 1837 0 1838 0 0 -105z"/>
</g>
</svg>
