<?xml version="1.0" standalone="no"?>
<!DOCTYPE svg PUBLIC "-//W3C//DTD SVG 20010904//EN"
 "http://www.w3.org/TR/2001/REC-SVG-20010904/DTD/svg10.dtd">
<svg version="1.0" xmlns="http://www.w3.org/2000/svg"
 width="512.000000pt" height="512.000000pt" viewBox="0 0 512.000000 512.000000"
 preserveAspectRatio="xMidYMid meet">

<g transform="translate(0.000000,512.000000) scale(0.100000,-0.100000)"
fill="#8e24aa" stroke="none">
<path d="M186 5104 c-34 -11 -64 -31 -102 -68 -92 -93 -84 115 -84 -2201 0
-2261 -5 -2101 66 -2183 20 -24 59 -55 88 -70 l51 -27 563 0 564 0 29 33 c16
18 29 44 29 58 0 32 -24 79 -47 90 -10 5 -263 11 -561 14 l-544 5 -19 24 c-19
23 -19 70 -19 2058 l0 2034 25 24 24 25 1220 0 1220 0 3 -262 c3 -249 4 -265
25 -304 28 -53 74 -99 127 -127 39 -21 55 -22 304 -25 l262 -3 0 -232 0 -232
-391 -390 c-215 -215 -397 -402 -405 -417 -24 -46 -18 -84 21 -126 l34 -37
-192 -192 c-185 -186 -192 -194 -192 -233 0 -39 7 -46 215 -255 l214 -214
-390 -3 -389 -3 -57 -28 c-61 -30 -105 -74 -140 -140 -33 -61 -33 -193 1 -257
32 -61 76 -107 136 -138 l50 -27 355 -5 355 -5 68 -49 c201 -144 368 -216 632
-273 l40 -9 0 -89 0 -90 -618 -5 -619 -5 -24 -28 c-42 -49 -27 -124 31 -152
28 -13 97 -15 476 -15 l444 0 -40 -26 c-135 -90 -225 -248 -225 -396 0 -52 3
-63 29 -89 l29 -29 1097 0 1097 0 29 29 c26 26 29 37 29 89 0 122 -67 264
-166 351 -88 77 -187 116 -326 127 l-88 6 0 272 c0 150 -4 287 -10 306 -9 32
-8 36 23 59 17 13 80 72 138 131 204 206 335 449 401 741 20 91 23 130 23 314
-1 179 -4 224 -22 307 -60 265 -163 472 -338 679 l-74 87 23 21 c22 21 24 21
85 6 50 -13 72 -14 115 -5 72 15 140 60 176 117 53 83 62 149 34 244 -15 51
-34 72 -362 402 -390 392 -402 401 -517 401 -83 -1 -126 -17 -185 -71 -79 -70
-112 -196 -79 -293 l12 -32 -182 -182 -181 -181 0 193 c0 148 -3 199 -14 220
-18 33 -732 745 -763 761 -15 8 -388 11 -1310 10 -1115 0 -1295 -2 -1337 -15z
m2917 -702 c-219 -4 -207 -15 -211 204 l-2 169 185 -185 185 -185 -157 -3z
m1490 -240 c284 -285 327 -332 327 -357 -1 -50 -50 -92 -93 -80 -12 4 -169
154 -349 333 -312 311 -328 329 -328 364 0 28 6 42 27 58 54 42 62 35 416
-318z m-256 -244 c123 -123 223 -227 223 -233 0 -6 -283 -294 -630 -640 l-630
-630 -230 230 -230 230 632 632 c348 348 635 633 638 633 3 0 105 -100 227
-222z m253 -622 c157 -179 267 -414 306 -651 12 -76 15 -138 11 -260 -8 -218
-42 -354 -137 -545 -66 -131 -137 -228 -247 -339 l-93 -93 -73 68 c-40 38 -89
78 -110 89 -20 11 -37 22 -37 25 0 3 16 16 35 29 50 34 165 158 215 231 60 89
117 215 147 328 23 84 26 117 27 252 0 127 -4 171 -22 243 -41 165 -118 314
-230 445 l-45 53 94 95 c51 52 97 93 101 92 3 -2 30 -29 58 -62z m-357 -313
c81 -92 151 -224 183 -348 25 -97 25 -314 0 -405 -67 -243 -225 -439 -441
-548 -64 -32 -225 -77 -312 -87 l-53 -6 0 428 0 428 287 287 c159 159 291 288
296 288 4 0 22 -16 40 -37z m-1300 -481 l117 -117 -143 -143 -142 -142 -120
120 -120 120 140 140 c77 77 142 140 145 140 3 0 58 -53 123 -118z m294 -292
c47 -42 99 -41 148 1 l35 31 0 -312 0 -312 -32 7 c-62 14 -77 24 -96 68 -26
58 -91 123 -151 150 -38 18 -70 22 -181 25 l-135 4 185 184 c102 101 187 184
189 184 2 0 19 -13 38 -30z m-151 -574 c38 -38 43 -70 19 -115 -8 -16 -27 -33
-42 -40 -21 -8 -172 -11 -562 -9 l-533 3 -24 28 c-42 49 -27 123 31 155 14 8
184 11 548 12 l529 0 34 -34z m273 -210 c31 -8 73 -17 93 -20 l38 -7 -29 -52
c-28 -49 -52 -115 -66 -181 -5 -26 -8 -28 -42 -21 -70 13 -203 55 -274 87
l-71 32 62 12 c82 17 142 54 187 115 21 27 39 49 41 49 2 0 30 -6 61 -14z
m763 -18 c79 -37 142 -98 181 -177 l32 -65 3 -278 3 -278 -376 0 -376 0 3 278
c3 276 3 277 29 333 69 146 193 220 364 216 63 -2 92 -8 137 -29z m598 -1017
c61 -25 121 -72 151 -119 16 -25 29 -50 29 -54 0 -4 -421 -8 -935 -8 -514 0
-935 4 -935 8 0 4 13 29 29 54 43 67 120 115 211 131 14 3 338 4 720 3 569 -1
701 -4 730 -15z"/>
<path d="M3886 1094 c-20 -21 -26 -37 -26 -69 0 -59 36 -95 95 -95 59 0 95 36
95 95 0 59 -36 95 -95 95 -32 0 -48 -6 -69 -26z"/>
<path d="M787 3909 c-22 -13 -47 -61 -47 -93 0 -14 13 -40 29 -58 l29 -33
1007 0 1007 0 29 33 c31 35 36 66 17 107 -26 57 19 55 -1060 55 -656 -1 -999
-4 -1011 -11z"/>
<path d="M775 3417 c-17 -14 -28 -36 -32 -63 -5 -36 -1 -46 25 -75 l30 -34
922 0 922 0 29 33 c40 44 40 93 0 133 l-29 29 -921 0 -920 0 -26 -23z"/>
<path d="M775 2937 c-17 -14 -28 -36 -32 -63 -5 -36 -1 -46 25 -75 l30 -34
771 -3 c677 -2 775 0 801 13 28 14 60 60 60 85 0 27 -33 78 -56 89 -18 8 -241
11 -799 11 l-774 0 -26 -23z"/>
<path d="M775 2457 c-17 -14 -28 -36 -32 -63 -5 -36 -1 -46 25 -75 l30 -34
520 0 c510 0 521 0 548 21 52 38 56 103 9 150 l-24 24 -525 0 -525 0 -26 -23z"/>
<path d="M769 1971 c-40 -40 -40 -89 0 -133 l29 -33 299 -3 c164 -2 317 -1
340 3 90 13 125 105 64 166 l-29 29 -337 0 -337 0 -29 -29z"/>
<path d="M1669 711 c-21 -22 -29 -39 -29 -66 0 -51 44 -95 95 -95 47 0 71 14
91 52 51 99 -77 188 -157 109z"/>
</g>
</svg>
