<?xml version="1.0" standalone="no"?>
<!DOCTYPE svg PUBLIC "-//W3C//DTD SVG 20010904//EN"
 "http://www.w3.org/TR/2001/REC-SVG-20010904/DTD/svg10.dtd">
<svg version="1.0" xmlns="http://www.w3.org/2000/svg"
 width="512.000000pt" height="512.000000pt" viewBox="0 0 512.000000 512.000000"
 preserveAspectRatio="xMidYMid meet">

<g transform="translate(0.000000,512.000000) scale(0.100000,-0.100000)"
fill="#00bfff" stroke="none">
<path d="M1415 5095 l-25 -24 0 -256 0 -255 -90 0 c-99 0 -132 -10 -149 -47
-16 -34 -14 -47 10 -77 l20 -26 1513 0 c1653 0 1581 3 1638 -57 62 -65 58 58
58 -1778 0 -1824 4 -1707 -55 -1777 -14 -16 -25 -42 -25 -57 0 -36 38 -71 77
-71 37 0 87 50 124 125 23 49 24 57 27 323 l3 272 265 0 265 0 24 25 c32 31
32 69 0 100 l-24 25 -266 0 -265 0 0 200 0 200 269 0 270 0 20 26 c26 33 27
65 2 95 l-19 24 -271 3 -271 3 0 194 0 195 249 0 c149 0 260 4 279 11 18 6 35
22 42 40 17 40 -2 84 -42 98 -19 7 -130 11 -279 11 l-249 0 0 195 0 194 271 3
271 3 19 24 c25 30 24 62 -2 95 l-20 26 -270 0 -269 0 0 200 0 200 265 0 266
0 24 25 c32 31 32 69 0 100 l-24 25 -265 0 -265 0 -3 288 c-3 270 -4 290 -25
334 -32 71 -103 141 -176 174 l-62 29 -272 3 -273 4 0 254 0 255 -25 24 c-13
14 -36 25 -50 25 -14 0 -37 -11 -50 -25 l-25 -24 0 -256 0 -255 -200 0 -200 0
0 259 0 260 -26 20 c-33 26 -65 27 -95 2 -24 -19 -24 -20 -27 -280 l-3 -261
-194 0 -195 0 0 239 c0 142 -4 250 -11 269 -14 40 -58 59 -98 42 -18 -7 -34
-24 -40 -42 -7 -19 -11 -127 -11 -269 l0 -239 -195 0 -194 0 -3 261 c-3 260
-3 261 -27 280 -30 25 -62 24 -95 -2 l-26 -20 0 -260 0 -259 -200 0 -200 0 0
255 0 256 -25 24 c-13 14 -36 25 -50 25 -14 0 -37 -11 -50 -25z"/>
<path d="M854 4550 c-101 -20 -203 -102 -247 -198 -21 -44 -22 -65 -25 -334
l-3 -288 -265 0 -265 0 -24 -25 c-32 -31 -32 -69 0 -100 l24 -25 266 0 265 0
0 -200 0 -200 -269 0 -270 0 -20 -26 c-26 -33 -27 -65 -2 -95 l19 -24 271 -3
271 -3 0 -194 0 -195 -249 0 c-149 0 -260 -4 -279 -11 -65 -22 -65 -116 0
-138 19 -7 130 -11 279 -11 l249 0 0 -195 0 -194 -271 -3 -271 -3 -19 -24
c-25 -30 -24 -62 2 -95 l20 -26 270 0 269 0 0 -200 0 -200 -265 0 -266 0 -24
-25 c-32 -31 -32 -69 0 -100 l24 -25 266 0 265 0 0 -143 c0 -137 1 -144 23
-165 31 -29 72 -28 102 3 l25 24 0 1573 c0 1504 1 1575 19 1613 26 57 70 91
138 106 105 22 141 104 62 144 -31 16 -35 17 -95 5z"/>
<path d="M1480 3831 c-45 -14 -84 -39 -117 -73 -67 -69 -63 4 -63 -1185 0
-1214 -6 -1120 78 -1195 79 -71 27 -68 1182 -68 1155 0 1103 -3 1182 68 84 75
78 -19 78 1195 0 1189 4 1116 -63 1185 -18 19 -50 43 -72 55 l-40 22 -1070 2
c-588 1 -1081 -2 -1095 -6z m1620 -536 l0 -394 -36 -10 c-46 -13 -127 -65
-160 -103 -30 -36 -74 -121 -74 -143 0 -13 -35 -15 -280 -15 l-280 0 0 195 c0
179 1 195 18 195 28 0 116 56 152 96 52 60 74 118 74 199 0 77 -27 152 -77
210 -34 41 -113 83 -178 95 -140 27 -289 -59 -337 -192 l-17 -48 -227 0 -228
0 0 123 c0 131 8 159 54 177 11 5 375 9 809 9 l787 1 0 -395z m546 362 l24
-28 0 -845 0 -844 -515 0 -515 0 2 268 3 267 89 0 88 0 21 -55 c28 -77 121
-169 200 -198 114 -43 252 -22 349 52 88 66 146 205 133 315 -14 124 -104 244
-220 292 l-55 23 0 393 0 394 186 -3 186 -3 24 -28z m-1351 -207 c64 -39 88
-122 57 -192 -48 -108 -184 -130 -261 -43 -120 137 49 330 204 235z m-360
-269 c31 -61 83 -113 141 -140 l44 -21 0 -247 c0 -318 -18 -293 207 -293 l163
0 0 -510 0 -510 -250 0 -250 0 0 150 0 150 28 6 c133 32 225 148 225 285 0
197 -185 335 -378 280 -144 -40 -235 -212 -191 -363 17 -61 86 -147 138 -174
l29 -15 -3 -157 -3 -157 -135 -3 c-160 -4 -194 2 -226 33 l-24 24 0 856 0 855
230 0 230 0 25 -49z m1338 -453 c101 -56 133 -188 70 -285 -36 -56 -84 -86
-148 -91 -137 -11 -234 85 -223 222 12 147 169 227 301 154z m-1222 -574 c93
-89 27 -244 -103 -244 -68 0 -138 70 -138 138 0 126 151 192 241 106z m1619
-499 c0 -130 -1 -137 -24 -160 -13 -13 -39 -26 -57 -30 -19 -3 -239 -4 -489
-3 l-455 3 -3 163 -2 162 515 0 515 0 0 -135z"/>
<path d="M625 885 c-44 -43 -29 -99 48 -182 50 -54 113 -87 192 -102 32 -6
164 -11 292 -11 l233 0 0 -270 0 -271 25 -24 c31 -32 69 -32 100 0 l25 24 0
271 0 270 200 0 200 0 0 -274 0 -275 26 -20 c33 -26 65 -27 95 -2 l24 19 3
276 3 276 194 0 195 0 0 -254 c0 -153 4 -265 11 -284 22 -65 116 -65 138 0 7
19 11 131 11 284 l0 254 195 0 194 0 3 -276 3 -276 24 -19 c30 -25 62 -24 95
2 l26 20 0 275 0 274 200 0 200 0 0 -270 0 -271 25 -24 c31 -32 69 -32 100 0
l25 24 0 270 0 270 200 3 c190 3 201 4 221 25 27 27 29 75 4 103 -18 19 -33
20 -1649 22 l-1631 3 -43 23 c-28 15 -55 41 -77 76 -47 74 -86 86 -130 41z"/>
</g>
</svg>
