<?xml version="1.0" standalone="no"?>
<!DOCTYPE svg PUBLIC "-//W3C//DTD SVG 20010904//EN"
 "http://www.w3.org/TR/2001/REC-SVG-20010904/DTD/svg10.dtd">
<svg version="1.0" xmlns="http://www.w3.org/2000/svg"
 width="512.000000pt" height="512.000000pt" viewBox="0 0 512.000000 512.000000"
 preserveAspectRatio="xMidYMid meet">

<g transform="translate(0.000000,512.000000) scale(0.100000,-0.100000)"
fill="#ff6f61" stroke="none">
<path d="M3143 5110 c-12 -5 -28 -22 -36 -37 -11 -21 -203 -557 -399 -1115
-10 -28 -11 -28 -98 -28 l-89 0 -3 178 c-2 148 -6 183 -22 214 -23 47 -79 102
-126 125 -85 41 -67 44 -1184 -251 -669 -176 -1048 -281 -1065 -294 l-26 -19
-3 -1839 c-3 -2065 -9 -1887 73 -1969 80 -80 -14 -75 1371 -75 1208 0 1234 0
1287 20 60 23 104 64 139 130 23 45 23 49 28 461 l5 416 335 -118 c184 -66
350 -120 368 -121 23 -1 40 6 57 23 28 29 1275 3551 1275 3603 0 21 -8 40 -22
53 -22 20 -1798 654 -1829 652 -8 0 -24 -4 -36 -9z m897 -470 c437 -154 795
-281 796 -283 3 -3 -1183 -3367 -1189 -3374 -2 -2 -150 48 -328 111 l-324 114
-3 340 -2 341 37 3 c37 3 42 -1 168 -130 113 -115 134 -132 162 -132 45 0 62
9 78 41 27 50 95 253 95 281 0 14 -21 71 -46 126 l-46 101 53 150 c29 83 56
156 60 163 4 7 56 -32 140 -105 117 -103 138 -117 169 -117 54 0 73 28 127
182 40 117 46 142 37 166 -6 15 -70 122 -142 238 l-131 211 50 139 c27 76 50
153 50 169 2 37 -99 253 -132 283 -12 12 -34 22 -49 22 -28 0 -243 -99 -276
-127 -11 -10 -37 -67 -58 -128 -72 -206 -54 -185 -202 -236 -70 -24 -131 -45
-135 -47 -4 -2 -9 129 -11 290 -3 329 -7 348 -81 418 -21 19 -37 39 -37 44 0
8 300 864 351 1004 5 12 12 22 17 22 5 0 366 -126 802 -280z m-1719 -369 l29
-29 0 -156 0 -156 -742 1 c-409 0 -738 3 -731 6 38 15 1363 361 1386 362 19 1
38 -9 58 -28z m470 -547 l24 -26 3 -1711 c2 -1209 0 -1723 -8 -1749 -21 -73
68 -68 -1275 -68 -1284 0 -1251 -1 -1269 45 -3 9 -6 808 -6 1776 l0 1759 1253
0 1254 0 24 -26z m861 -298 l27 -54 -210 -592 c-115 -326 -209 -600 -209 -610
0 -10 22 -65 48 -121 47 -100 48 -105 34 -140 l-13 -35 -99 99 -98 100 -71 -7
-71 -6 0 58 0 59 40 18 c22 10 46 25 55 35 8 9 108 282 223 606 l208 589 49
27 c28 15 52 28 55 28 3 0 18 -24 32 -54z m-490 -492 l-29 -79 -72 -5 -71 -5
0 57 0 56 83 30 c112 40 112 40 115 32 1 -4 -10 -42 -26 -86z m606 -217 c45
-74 82 -137 82 -141 0 -3 -7 -23 -15 -42 l-14 -35 -101 88 c-55 48 -100 92
-100 98 0 16 54 165 60 165 3 0 43 -60 88 -133z m-702 -54 c-3 -10 -21 -61
-40 -113 l-35 -95 -1 107 c0 115 -1 114 58 117 18 1 22 -3 18 -16z"/>
<path d="M3178 4311 l-26 -80 52 -19 c101 -38 91 -42 120 45 14 42 23 80 18
84 -4 3 -32 15 -62 24 -30 10 -60 20 -65 22 -6 2 -22 -32 -37 -76z"/>
<path d="M3480 4232 c-40 -106 -40 -104 35 -131 37 -13 70 -20 75 -15 10 11
53 144 49 149 -2 2 -34 15 -71 29 l-67 25 -21 -57z"/>
<path d="M3771 4125 c-39 -105 -41 -100 31 -124 35 -11 67 -22 72 -23 4 -2 21
32 36 75 l28 78 -27 11 c-53 21 -104 38 -112 38 -4 0 -17 -25 -28 -55z"/>
<path d="M4057 4004 c-15 -43 -24 -81 -20 -84 9 -8 136 -51 138 -47 14 23 53
153 48 158 -5 3 -33 15 -63 24 -30 10 -60 20 -66 22 -5 2 -22 -31 -37 -73z"/>
<path d="M4371 3956 c-5 -11 -18 -47 -30 -79 l-21 -58 28 -10 c53 -21 105 -39
112 -39 8 0 65 149 59 155 -3 2 -35 15 -72 28 l-68 25 -8 -22z"/>
<path d="M1321 3395 c-431 -98 -718 -494 -670 -927 42 -372 310 -666 680 -744
91 -20 294 -14 384 11 94 26 233 97 311 158 134 106 238 260 290 432 24 80 27
106 27 235 0 129 -3 155 -27 235 -52 171 -149 318 -284 426 -80 65 -222 138
-317 164 -84 23 -310 29 -394 10z m276 -167 c10 -14 64 -250 63 -280 0 -16
-15 -18 -165 -18 -125 0 -165 3 -165 13 0 19 58 276 65 287 9 15 190 13 202
-2z m-397 -67 c0 -5 -7 -39 -15 -77 -8 -38 -19 -95 -25 -126 -9 -43 -16 -58
-28 -58 -9 0 -66 -9 -125 -21 -59 -12 -110 -19 -113 -16 -22 22 139 206 236
270 56 38 70 43 70 28z m666 -30 c73 -49 161 -138 208 -211 20 -30 36 -57 36
-61 0 -3 -60 6 -132 21 l-133 26 -21 104 c-12 58 -25 117 -28 133 -3 15 -2 27
3 27 5 0 35 -18 67 -39z m-180 -384 c8 -8 9 -365 1 -374 -10 -10 -229 -16
-310 -8 l-77 7 0 188 0 189 38 4 c56 7 340 2 348 -6z m-556 -186 l0 -170 -32
6 c-18 2 -87 17 -153 32 l-120 27 -5 52 c-3 29 -3 76 0 104 l5 53 60 13 c106
24 230 50 238 51 4 1 7 -75 7 -168z m907 133 l131 -28 7 -53 c3 -29 3 -77 0
-106 l-7 -53 -131 -28 c-73 -15 -141 -30 -152 -32 -20 -5 -20 0 -20 166 0 166
0 171 20 166 11 -2 79 -17 152 -32z m-1009 -455 c64 -12 118 -23 119 -24 6 -3
53 -258 49 -262 -11 -11 -127 76 -191 142 -74 77 -143 184 -111 172 10 -4 70
-17 134 -28z m1056 -26 c-37 -63 -176 -202 -237 -238 -26 -15 -49 -26 -51 -24
-5 5 43 251 50 259 6 6 257 58 262 54 2 -1 -9 -24 -24 -51z m-424 -40 c1 -31
-53 -267 -63 -280 -11 -14 -173 -18 -194 -5 -10 6 -73 259 -73 292 0 6 61 10
165 10 150 0 165 -2 165 -17z"/>
<path d="M1070 1280 l0 -90 85 0 85 0 0 90 0 90 -85 0 -85 0 0 -90z"/>
<path d="M1414 1357 c-3 -8 -4 -47 -2 -88 l3 -74 83 -3 82 -3 0 91 0 90 -80 0
c-58 0 -82 -4 -86 -13z"/>
<path d="M1754 1357 c-3 -8 -4 -47 -2 -88 l3 -74 83 -3 82 -3 0 91 0 90 -80 0
c-58 0 -82 -4 -86 -13z"/>
<path d="M812 938 l3 -83 683 -3 682 -2 0 85 0 85 -685 0 -686 0 3 -82z"/>
<path d="M982 598 l3 -83 513 -3 512 -2 0 85 0 85 -515 0 -516 0 3 -82z"/>
</g>
</svg>
