<?xml version="1.0" standalone="no"?>
<!DOCTYPE svg PUBLIC "-//W3C//DTD SVG 20010904//EN"
 "http://www.w3.org/TR/2001/REC-SVG-20010904/DTD/svg10.dtd">
<svg version="1.0" xmlns="http://www.w3.org/2000/svg"
 width="512.000000pt" height="512.000000pt" viewBox="0 0 512.000000 512.000000"
 preserveAspectRatio="xMidYMid meet">

<g transform="translate(0.000000,512.000000) scale(0.100000,-0.100000)"
fill="#FFF" stroke="none">
<path d="M2955 4786 c-288 -58 -510 -239 -645 -528 -55 -119 -177 -561 -236
-855 l-18 -91 -185 -4 c-179 -3 -188 -4 -237 -30 -196 -103 -239 -362 -85
-515 74 -74 115 -88 275 -91 l139 -4 -7 -64 c-17 -170 -103 -643 -152 -838
-56 -223 -182 -525 -247 -595 -48 -50 -120 -81 -193 -81 -65 0 -107 18 -216
91 -100 68 -213 87 -312 53 -59 -20 -152 -105 -188 -171 -82 -150 -47 -315 96
-459 131 -131 316 -234 491 -271 141 -30 328 -1 478 73 382 190 630 676 812
1589 29 148 115 642 115 667 0 4 118 8 263 10 262 3 262 3 312 30 202 107 238
378 70 526 -82 72 -125 82 -355 82 -153 0 -200 3 -200 13 0 25 80 315 110 402
129 363 301 466 386 230 36 -99 79 -161 146 -211 102 -75 225 -83 345 -24 164
81 226 290 150 509 -74 212 -266 422 -462 504 -141 59 -315 79 -450 53z"/>
<path d="M3256 2033 c-28 -9 -71 -37 -101 -65 -68 -62 -98 -129 -98 -218 0
-105 23 -145 176 -297 l131 -133 -135 -137 c-107 -109 -140 -149 -155 -188
-74 -194 71 -399 282 -399 106 0 153 27 304 178 l124 125 141 -138 c125 -123
147 -141 195 -155 154 -46 302 19 367 161 21 46 25 66 21 131 -5 107 -26 144
-176 294 l-126 127 130 133 c71 73 139 151 149 173 12 25 21 69 23 117 3 65 0
85 -21 131 -51 111 -143 170 -267 171 -115 1 -151 -20 -305 -174 l-129 -130
-131 130 c-92 91 -145 136 -180 151 -65 29 -156 34 -219 12z"/>
</g>
</svg>
