<?xml version="1.0" standalone="no"?>
<!DOCTYPE svg PUBLIC "-//W3C//DTD SVG 20010904//EN"
 "http://www.w3.org/TR/2001/REC-SVG-20010904/DTD/svg10.dtd">
<svg version="1.0" xmlns="http://www.w3.org/2000/svg"
 width="512.000000pt" height="512.000000pt" viewBox="0 0 512.000000 512.000000"
 preserveAspectRatio="xMidYMid meet">

<g transform="translate(0.000000,512.000000) scale(0.100000,-0.100000)"
fill="#FFF" stroke="none">
<path d="M4681 3650 c-153 -32 -278 -172 -289 -324 -6 -72 15 -118 63 -140 86
-41 161 5 180 109 9 54 21 73 58 95 56 34 126 19 161 -34 19 -29 21 -99 4
-146 -6 -19 -109 -156 -229 -305 -119 -150 -222 -282 -228 -293 -27 -50 -1
-130 51 -158 17 -10 94 -13 301 -14 310 0 322 2 352 66 19 40 19 68 0 108 -26
54 -46 61 -199 66 l-138 5 132 165 c153 191 177 229 202 319 34 124 18 235
-50 331 -40 57 -124 121 -181 139 -55 16 -141 21 -190 11z"/>
<path d="M75 3160 c-11 -4 -31 -20 -45 -35 l-25 -27 -3 -771 c-2 -760 -2 -772
18 -805 38 -62 48 -63 483 -60 423 3 415 2 454 57 21 30 19 104 -4 135 -38 51
-37 51 -380 54 l-323 3 0 240 0 239 183 1 c113 0 195 5 217 12 71 25 104 124
58 182 -38 48 -70 55 -273 55 l-185 0 0 239 0 240 318 3 c284 3 321 5 345 21
84 55 78 177 -10 213 -25 11 -114 14 -420 13 -213 0 -397 -4 -408 -9z"/>
<path d="M2025 3160 c-11 -4 -31 -20 -45 -35 l-25 -27 -3 -771 c-2 -760 -2
-772 18 -805 56 -92 190 -69 220 37 6 22 10 220 10 496 l1 460 129 -256 c82
-164 139 -264 156 -278 37 -29 111 -29 148 0 17 14 74 114 156 278 l129 256 1
-460 c0 -276 4 -474 10 -496 30 -106 164 -129 220 -37 20 33 20 45 18 805 l-3
773 -31 31 c-23 23 -43 32 -75 36 -85 8 -87 6 -301 -422 -106 -212 -195 -385
-198 -385 -3 0 -92 173 -198 385 -163 326 -198 389 -225 405 -33 21 -78 25
-112 10z"/>
<path d="M3781 3154 c-177 -47 -312 -188 -356 -369 -14 -61 -16 -125 -13 -500
4 -415 4 -432 26 -489 61 -164 187 -277 357 -321 76 -19 132 -19 214 1 181 44
319 181 365 360 29 112 15 183 -43 217 -79 47 -173 -3 -186 -98 -16 -117 -55
-179 -140 -220 -48 -24 -64 -27 -118 -23 -71 6 -111 23 -156 69 -69 68 -66 48
-66 535 l0 441 30 49 c19 30 49 60 80 79 44 27 57 30 129 30 63 0 88 -4 111
-19 78 -51 111 -102 126 -198 11 -69 30 -103 70 -124 65 -33 143 0 169 74 19
56 3 149 -43 246 -97 205 -340 318 -556 260z"/>
<path d="M1039 2665 c-82 -45 -81 -168 2 -211 22 -11 83 -14 308 -14 l279 0
31 25 c62 53 62 137 0 190 l-31 25 -281 0 c-224 -1 -287 -4 -308 -15z"/>
<path d="M1063 2189 c-37 -11 -83 -61 -84 -92 -4 -71 14 -107 66 -131 46 -22
537 -24 590 -2 45 19 68 57 68 112 0 53 -36 98 -92 114 -45 12 -505 12 -548
-1z"/>
</g>
</svg>
