<svg height="64" viewBox="0 0 128 128" width="64" xmlns="http://www.w3.org/2000/svg" xmlns:xlink="http://www.w3.org/1999/xlink"><linearGradient id="a" gradientUnits="userSpaceOnUse" x1="0" x2="128" y1="128" y2="0"><stop offset="0" stop-color="#333"/><stop offset="1" stop-color="#5d5d5d"/></linearGradient><path d="m29.09375 11.234375c-3.183804 0-5.71875 2.566196-5.71875 5.75v94.031255c0 3.1838 2.534946 5.75 5.71875 5.75h69.8125c3.1838 0 5.71875-2.5662 5.71875-5.75v-70.656255h-21.03125c-4.306108 0-8.0625-3.141109-8.0625-7.3125v-21.8125zm50.4375 0v21.8125c0 1.714122 1.631968 3.3125 4.0625 3.3125h21.03125zm-18.5625 51.875c1.74123.000026 3.247748.281059 4.46875.84375 1.231594.562743 2.044645 1.296272 2.4375 2.15625.403442.849407.593734 2.29463.59375 4.34375v1h-6.21875v-1.90625c-.00001-.891833-.09075-1.443281-.25-1.6875-.159268-.244176-.409653-.374978-.78125-.375-.403466.000022-.725161.170885-.9375.5-.201736.329157-.312508.83113-.3125 1.5-.000008.860022.141412 1.502209.375 1.9375.222956.435328.834495.946713 1.875 1.5625 2.983452 1.773106 4.881172 3.238961 5.65625 4.375.775048 1.136063 1.156234 2.973089 1.15625 5.5-.000016 1.8368-.220956 3.191884-.65625 4.0625-.424708.870622-1.268406 1.592931-2.5 2.1875-1.23162.583952-2.646194.874999-4.28125.875-1.794332-.000001-3.319678-.351742-4.59375-1.03125-1.263463-.679507-2.107161-1.542635-2.5-2.59375-.392842-1.05111-.593751-2.536394-.59375-4.46875v-1.6875h6.21875v3.15625c-.000007.96618.111364 1.567704.28125 1.84375.180486.276054.491565.406254.9375.40625.445918.000004.756394-.149624.96875-.5.222953-.350366.34374-.87237.34375-1.5625-.00001-1.518268-.210934-2.53283-.625-3-.424701-.467152-1.45809-1.250157-3.125-2.34375-1.666922-1.104188-2.77102-1.875973-3.3125-2.375-.541485-.499-1.014013-1.212498-1.375-2.09375-.350372-.88122-.500001-2.00535-.5-3.375-.000001-1.974799.219736-3.399389.71875-4.3125.509629-.913065 1.343312-1.646594 2.46875-2.15625 1.12543-.520222 2.469897-.781224 4.0625-.78125zm-21.40625.5625h9.71875l3.84375 25.78125h-6.875l-.34375-4.65625h-2.40625l-.375 4.65625h-6.96875zm31.59375 0h8.65625c.254805 1.550151.525822 3.366545.8125 5.46875l.9375 6.5625 1.53125-12.03125h8.75v25.78125h-5.875v-17.40625l-2.34375 17.40625h-4.15625l-2.46875-17.03125v17.03125h-5.84375zm-26.4375 5.75c-.679515 4.926447-1.11138 8.529789-1.28125 10.8125h2.28125c-.339763-2.919749-.660254-6.523091-1-10.8125z" fill="#B0C4DE"/></svg>