<?xml version="1.0" standalone="no"?>
<!DOCTYPE svg PUBLIC "-//W3C//DTD SVG 20010904//EN"
 "http://www.w3.org/TR/2001/REC-SVG-20010904/DTD/svg10.dtd">
<svg version="1.0" xmlns="http://www.w3.org/2000/svg"
 width="512.000000pt" height="512.000000pt" viewBox="0 0 512.000000 512.000000"
 preserveAspectRatio="xMidYMid meet">

<g transform="translate(0.000000,512.000000) scale(0.100000,-0.100000)"
fill="#000000" stroke="none">
<path d="M2401 4850 c-117 -25 -241 -81 -336 -153 -81 -62 -1524 -1509 -1565
-1570 -50 -75 -98 -188 -121 -284 -18 -73 -20 -109 -17 -213 4 -106 10 -139
37 -220 67 -200 44 -174 881 -1011 582 -583 772 -767 829 -804 275 -180 628
-179 905 2 53 34 257 232 784 757 393 391 740 743 771 782 78 96 114 161 152
274 76 226 41 493 -93 702 -28 44 -260 284 -776 801 -406 406 -764 759 -797
784 -73 55 -167 103 -260 133 -56 18 -99 23 -210 26 -77 2 -160 -1 -184 -6z
m334 -434 c53 -25 144 -112 798 -765 702 -701 740 -740 775 -810 36 -72 37
-79 37 -181 0 -99 -2 -109 -34 -175 -31 -66 -79 -116 -770 -806 -693 -694
-740 -739 -806 -770 -66 -32 -76 -34 -175 -34 -99 0 -109 2 -175 34 -66 31
-113 77 -806 770 -691 690 -739 740 -770 806 -32 66 -34 76 -34 175 0 102 1
109 37 181 35 69 68 105 535 572 l498 497 155 -155 155 -155 0 -108 c0 -105 1
-110 38 -185 29 -58 53 -90 102 -134 l65 -58 0 -555 0 -555 -63 -56 c-228
-204 -182 -548 91 -681 63 -31 74 -33 172 -33 99 0 109 2 172 33 273 134 319
477 91 681 l-63 56 0 488 c0 268 3 487 8 487 4 0 76 -69 161 -154 l153 -153
-7 -65 c-22 -205 117 -401 317 -448 262 -60 516 158 496 427 -8 101 -40 174
-108 247 -94 99 -210 145 -339 132 l-65 -7 -208 208 -208 208 6 65 c24 254
-187 468 -441 447 l-71 -6 -159 160 -160 160 95 92 c87 85 142 122 220 148 14
5 70 7 125 6 85 -3 109 -7 160 -31z"/>
</g>
</svg>
